<svg width="14" height="14" viewBox="0 0 14 14" fill="none" xmlns="http://www.w3.org/2000/svg">
<circle cx="7" cy="7" r="7" fill="#ED4848"/>
<path fill-rule="evenodd" clip-rule="evenodd" d="M4.55125 4.55125C4.60398 4.49858 4.67547 4.46899 4.75 4.46899C4.82453 4.46899 4.89601 4.49858 4.94875 4.55125L9.44875 9.05125C9.47638 9.07699 9.49854 9.10804 9.51391 9.14254C9.52929 9.17704 9.53755 9.21429 9.53822 9.25205C9.53888 9.28981 9.53194 9.32732 9.51779 9.36235C9.50365 9.39737 9.48259 9.42918 9.45589 9.45589C9.42918 9.48259 9.39737 9.50365 9.36235 9.51779C9.32732 9.53194 9.28981 9.53888 9.25205 9.53822C9.21429 9.53755 9.17704 9.52929 9.14254 9.51391C9.10804 9.49854 9.07699 9.47638 9.05125 9.44875L4.55125 4.94875C4.49858 4.89601 4.46899 4.82453 4.46899 4.75C4.46899 4.67547 4.49858 4.60398 4.55125 4.55125Z" fill="white"/>
<path fill-rule="evenodd" clip-rule="evenodd" d="M9.44875 4.55125C9.50142 4.60398 9.53101 4.67547 9.53101 4.75C9.53101 4.82453 9.50142 4.89601 9.44875 4.94875L4.94875 9.44875C4.89544 9.49843 4.82492 9.52547 4.75206 9.52419C4.67919 9.5229 4.60968 9.49338 4.55815 9.44185C4.50662 9.39032 4.4771 9.32081 4.47581 9.24794C4.47453 9.17508 4.50157 9.10456 4.55125 9.05125L9.05125 4.55125C9.10399 4.49858 9.17547 4.46899 9.25 4.46899C9.32453 4.46899 9.39602 4.49858 9.44875 4.55125Z" fill="white"/>
</svg>
