<svg width="24" height="24" viewBox="0 0 24 24" fill="none" xmlns="http://www.w3.org/2000/svg">
<path opacity="0.987" fill-rule="evenodd" clip-rule="evenodd" d="M10.2202 0.104187C11.4635 -0.0347289 12.1993 -0.0347289 13.5353 0.104187C15.9001 0.454211 18.0924 1.54734 19.795 3.2255C18.6445 4.31304 17.509 5.41647 16.389 6.53546C14.2441 4.71755 11.85 4.29795 9.20658 5.27664C7.26749 6.16845 5.9172 7.61362 5.15574 9.61218C3.9114 8.68578 2.68327 7.73781 1.47191 6.7687C1.38773 6.72439 1.29157 6.70816 1.19751 6.72239C3.12175 3.01226 6.12872 0.805624 10.2184 0.102471" fill="#F44336"/>
<path opacity="0.997" fill-rule="evenodd" clip-rule="evenodd" d="M1.19408 6.72239C1.29126 6.70752 1.3833 6.72296 1.47019 6.76869C2.68156 7.73781 3.90968 8.68578 5.15402 9.61217C4.95821 10.3909 4.83478 11.186 4.7853 11.9875C4.8276 12.7626 4.95051 13.5235 5.15402 14.2701L1.28669 17.3486C-0.397449 13.8294 -0.428319 10.2873 1.19408 6.72239Z" fill="#FFC107"/>
<path opacity="0.999" fill-rule="evenodd" clip-rule="evenodd" d="M19.6115 21.077C18.4073 20.015 17.1466 19.0188 15.835 18.0928C17.1499 17.1645 17.9479 15.8908 18.2292 14.2718H11.7859V9.79736C15.5017 9.76649 19.2159 9.79793 22.9283 9.89168C23.6326 13.7161 22.8191 17.1645 20.4878 20.2366C20.2106 20.5313 19.917 20.8117 19.6115 21.077Z" fill="#448AFF"/>
<path opacity="0.993" fill-rule="evenodd" clip-rule="evenodd" d="M5.15396 14.2719C6.56026 17.7671 9.13849 19.3986 12.8886 19.1665C13.9414 19.0447 14.9507 18.6769 15.835 18.0929C17.1476 19.0213 18.4064 20.016 19.6115 21.0771C17.7021 22.7928 15.2675 23.8109 12.7051 23.9651C12.123 24.0117 11.538 24.0117 10.9558 23.9651C6.59056 23.4506 3.36749 21.2451 1.28662 17.3486L5.15396 14.2719Z" fill="#43A047"/>
</svg>
